<?xml version="1.0" encoding="UTF-8" standalone="no"?>
<!-- Created with Inkscape (http://www.inkscape.org/) -->

<svg
   xmlns:osb="http://www.openswatchbook.org/uri/2009/osb"
   xmlns:dc="http://purl.org/dc/elements/1.1/"
   xmlns:cc="http://creativecommons.org/ns#"
   xmlns:rdf="http://www.w3.org/1999/02/22-rdf-syntax-ns#"
   xmlns:svg="http://www.w3.org/2000/svg"
   xmlns="http://www.w3.org/2000/svg"
   xmlns:sodipodi="http://sodipodi.sourceforge.net/DTD/sodipodi-0.dtd"
   xmlns:inkscape="http://www.inkscape.org/namespaces/inkscape"
   width="54"
   height="30"
   viewBox="0 0 14.28732 7.9374"
   version="1.1"
   id="svg8"
   inkscape:version="0.92+devel unknown"
   sodipodi:docname="monitoshi-small.svg">
  <defs
     id="defs2">
    <linearGradient
       id="linearGradient4384"
       osb:paint="solid">
      <stop
         style="stop-color:#000000;stop-opacity:1;"
         offset="0"
         id="stop4382" />
    </linearGradient>
  </defs>
  <sodipodi:namedview
     id="base"
     pagecolor="#ffffff"
     bordercolor="#666666"
     borderopacity="1.0"
     inkscape:pageopacity="0.0"
     inkscape:pageshadow="2"
     inkscape:zoom="22.383244"
     inkscape:cx="37.803008"
     inkscape:cy="25.170918"
     inkscape:document-units="px"
     inkscape:current-layer="layer3"
     inkscape:document-rotation="0"
     showgrid="false"
     inkscape:window-width="2560"
     inkscape:window-height="1403"
     inkscape:window-x="0"
     inkscape:window-y="0"
     inkscape:window-maximized="1"
     units="px"
     borderlayer="true" />
  <metadata
     id="metadata5">
    <rdf:RDF>
      <cc:Work
         rdf:about="">
        <dc:format>image/svg+xml</dc:format>
        <dc:type
           rdf:resource="http://purl.org/dc/dcmitype/StillImage" />
        <dc:title></dc:title>
      </cc:Work>
    </rdf:RDF>
  </metadata>
  <g
     inkscape:label="Layer 1"
     inkscape:groupmode="layer"
     id="layer1"
     transform="translate(0,-289.06243)"
     style="display:none">
    <path
       style="fill:#000000;fill-opacity:1;stroke-width:0.2;stroke-miterlimit:4;stroke-dasharray:none"
       d="m 5.6690097,292.13371 c 0,-0.13326 1.087368,-0.87952 2.416372,-1.65837 l 2.4163693,-1.41609 -1.5633777,-1.64892 c -2.8349496,-2.99008 -3.5249696,-4.9195 -3.5230236,-9.85101 0.0022,-5.32641 0.947868,-7.54987 4.6712573,-10.98197 3.213736,-2.96232 5.510363,-3.8347 10.095213,-3.8347 8.694706,0 14.55392,5.96584 14.579736,14.84506 0.0138,4.73033 -1.508906,8.39894 -4.619578,11.13014 -3.731118,3.27597 -5.236232,3.63364 -15.344843,3.64651 -5.0204677,0.006 -9.1281253,-0.0974 -9.1281253,-0.23065 z m 20.9451043,-3.21367 c 8.638604,-5.31689 8.637794,-17.40505 -0.0015,-22.72239 -2.266096,-1.39474 -3.09081,-1.60088 -6.35,-1.5872 -4.258944,0.0178 -6.857817,1.10314 -9.671971,4.03895 -2.3497633,2.45135 -3.3361033,5.13065 -3.3224893,9.02521 0.0146,4.15815 1.2132036,6.90264 4.1850873,9.58225 2.123542,1.91471 2.192678,2.06665 1.273334,2.7984 -0.864824,0.68835 -0.295676,0.75681 5.156309,0.62026 5.763962,-0.14438 6.283232,-0.24878 8.731252,-1.75548 z m -8.34498,-6.59822 -1.09956,-2.64584 h -2.839865 c -2.171548,0 -2.839866,-0.1868 -2.839866,-0.79375 0,-0.57263 0.586842,-0.79375 2.106586,-0.79375 1.805705,0 2.154009,-0.18894 2.438617,-1.32292 0.4931,-1.96467 1.066484,-1.62956 2.457714,1.43639 l 1.252082,2.75929 1.237694,-4.34679 c 0.680734,-2.39074 1.430566,-4.3468 1.666296,-4.3468 0.235728,0 0.837656,1.29768 1.337616,2.88373 0.859176,2.72562 1.012738,2.89245 2.800764,3.04271 1.302036,0.10942 1.946454,0.44765 2.06724,1.08502 0.14814,0.78167 -0.23617,0.92604 -2.465044,0.92604 -2.408382,0 -2.683848,-0.12794 -3.133166,-1.45521 -0.46341,-1.36889 -0.566364,-1.22765 -1.735756,2.38125 -0.683718,2.11005 -1.447574,3.83646 -1.697458,3.83646 -0.249884,0 -0.949136,-1.19063 -1.553894,-2.64583 z"
       id="path3560"
       inkscape:connector-curvature="0" />
  </g>
  <g
     inkscape:groupmode="layer"
     id="layer3"
     inkscape:label="Layer 2"
     style="display:inline"
     transform="translate(0,-289.06243)">
    <path
       style="fill:#ffffff;stroke-width:0.26884228;fill-opacity:1"
       d="m 7.1379938,297.18218 h -7.33682234 l -0.18211329,-0.17639 -0.18211337,-0.17638 v -3.89226 -3.89226 l 0.37509426,-0.30151 0.37509315,-0.30152 7.06878319,0.0707 7.0687826,0.0707 0.07506,4.29948 0.07506,4.29948 z m -5.663323,-0.79375 h 0.6718769 l 0.079344,-2.18281 0.079344,-2.18281 0.6482719,1.38906 0.6482709,1.38906 h 0.5362012 0.5362012 l 0.5770543,-1.32291 0.5770543,-1.32292 H 6.0472437 6.266198 v 2.11667 2.11666 h 0.6733677 0.6733677 l 0.077847,-2.71198 0.077847,-2.71198 1.1609717,-0.0814 1.1609709,-0.0814 v 2.79334 2.79334 h 0.819509 0.81951 v -2.77812 -2.77813 h 1.09268 1.092678 v -0.52916 -0.52917 H 9.8547064 5.7944642 L 5.0565785,291.36632 4.3186928,292.95886 4.096795,292.82603 3.8748972,292.6932 3.2632154,291.23349 2.6515327,289.77377 H 1.7271613 0.802794 v 3.30729 3.30729 z"
       id="path4376"
       inkscape:connector-curvature="0" />
  </g>
</svg>
